<svg id="svg" version="1.1" xmlns="http://www.w3.org/2000/svg" xmlns:xlink="http://www.w3.org/1999/xlink" width="400" height="400" viewBox="0, 0, 400,400"><g id="svgg"><path id="path0" d="M113.772 23.872 C 58.186 32.625,14.570 74.336,2.189 130.581 C -0.569 143.107,-0.564 199.438,2.196 208.970 C 10.650 238.177,33.912 260.062,62.500 265.707 C 65.293 266.258,67.698 266.791,67.845 266.890 C 67.992 266.989,68.765 269.998,69.562 273.576 C 88.224 357.328,182.671 402.141,259.518 363.704 C 297.356 344.778,321.470 312.934,331.572 268.555 C 331.912 267.063,332.554 266.406,333.674 266.406 C 358.204 266.406,389.553 238.354,397.842 208.984 C 400.561 199.351,400.539 142.971,397.811 130.581 C 385.931 76.612,346.550 37.057,292.578 24.880 C 282.625 22.635,127.194 21.758,113.772 23.872 M286.018 48.237 C 332.531 58.356,365.571 92.026,374.759 138.672 C 377.085 150.483,376.822 194.216,374.373 202.767 C 369.482 219.840,355.791 234.498,339.376 240.233 C 336.456 241.254,333.784 241.915,333.439 241.701 C 333.095 241.488,332.811 215.231,332.810 183.352 C 332.807 126.894,332.766 125.325,331.254 122.844 C 326.684 115.349,316.980 115.380,311.400 122.908 C 309.779 125.094,309.762 125.688,309.325 192.830 C 308.845 266.620,309.059 263.067,304.210 277.928 C 271.842 377.129,129.758 378.065,96.242 279.297 C 90.922 263.620,91.164 267.373,90.677 192.830 C 90.238 125.689,90.220 125.094,88.600 122.908 C 83.020 115.380,73.316 115.349,68.746 122.844 C 67.234 125.325,67.193 126.894,67.190 183.352 C 67.189 215.231,66.924 241.471,66.602 241.664 C 66.279 241.856,63.617 241.201,60.686 240.209 C 44.146 234.607,29.909 219.105,25.193 201.563 C 23.171 194.040,23.206 149.007,25.241 138.672 C 35.279 87.709,75.339 51.164,126.172 46.598 C 140.613 45.300,279.045 46.720,286.018 48.237 M140.617 156.445 C 135.202 160.130,134.794 161.339,134.503 174.526 C 134.194 188.523,134.929 192.224,138.729 195.807 C 143.842 200.630,152.617 199.527,156.226 193.608 C 158.599 189.715,158.621 164.226,156.254 160.344 C 152.888 154.823,145.651 153.019,140.617 156.445 M247.844 156.246 C 242.696 159.385,242.194 161.233,242.190 177.033 C 242.188 190.452,242.278 191.310,243.964 193.811 C 249.540 202.086,262.197 199.672,264.848 189.828 C 266.470 183.806,265.591 163.091,263.600 160.407 C 259.480 154.851,252.957 153.128,247.844 156.246 M176.155 243.702 C 159.692 246.283,150.758 264.211,158.614 278.906 C 175.500 310.496,224.500 310.496,241.386 278.906 C 248.207 266.147,242.858 251.363,229.164 245.123 C 225.108 243.275,185.630 242.217,176.155 243.702 M220.381 268.622 C 214.035 280.479,194.505 282.811,183.652 273.007 C 176.903 266.909,176.121 267.188,200.000 267.188 C 220.278 267.188,221.117 267.247,220.381 268.622 " stroke="none" fill="#000000" fill-rule="evenodd"></path></g></svg>